<svg xmlns="http://www.w3.org/2000/svg" xmlns:xlink="http://www.w3.org/1999/xlink" viewBox="0 0 286.3 233.65"><defs><style>.cls-1,.cls-13{fill:#5dacc5;}.cls-1{opacity:0.36;}.cls-2{fill:#634e42;}.cls-3{fill:#eea889;}.cls-4{fill:none;stroke:#f7bc9a;stroke-linejoin:round;stroke-width:19.87px;}.cls-5{fill:#e95545;}.cls-6{fill:#b07f49;}.cls-7{fill:#c6c5c5;}.cls-8{fill:#edecec;}.cls-9{fill:#f7bc9a;}.cls-10{fill:#d9d9d9;}.cls-11{fill:#2c2d2c;}.cls-12{clip-path:url(#clip-path);}.cls-13,.cls-16{opacity:0.24;}.cls-14{fill:#bd1823;}.cls-15{clip-path:url(#clip-path-2);}.cls-16{fill:#39a7df;}.cls-17{fill:#1e72b8;}.cls-18{fill:#f5f5f5;}.cls-19{fill:#f6f6f6;}.cls-20{fill:#b3b3b3;}.cls-21{fill:#f19106;}.cls-22{fill:#867858;}.cls-23{fill:#ccd6c3;}.cls-24{fill:#f8b233;}.cls-25{fill:#e5342a;}.cls-26{fill:#b1b1b1;}.cls-27{fill:#2fbce6;}</style><clipPath id="clip-path"><path class="cls-1" d="M72.69,66.41a5.23,5.23,0,0,0-1.11,4.43c.25,2.22,1.4,9.38,2.85,11,1.68,1.91,2.92,2.61,7.7,2.79s12.78-.8,15-1.6,3.53-2.72,4.26-5.53,1.79-6.46.8-8.68-2.67-3.53-7.3-4.35a56.85,56.85,0,0,0-15.35-.19C74.74,64.83,73.64,65.34,72.69,66.41Z"/></clipPath><clipPath id="clip-path-2"><path class="cls-1" d="M140.32,66a5.25,5.25,0,0,1,1.15,4.43c-.23,2.22-1.32,9.38-2.76,11-1.67,1.93-2.9,2.64-7.68,2.85s-12.78-.7-15-1.48-3.55-2.69-4.3-5.5-1.85-6.44-.87-8.66,2.64-3.56,7.26-4.41A56.75,56.75,0,0,1,133.48,64C138.27,64.48,139.37,65,140.32,66Z"/></clipPath></defs><title>you-are-a-student</title><g id="Layer_2" data-name="Layer 2"><g id="Panels"><path class="cls-2" d="M174.76,114.67c-12.77.24-19.32-11.26-20.81-21.79s.25-3.18,2.74-33.28S143,11.38,126.09,6.49C113.32,2.8,108,7.71,108,7.71S102.7,2.8,89.93,6.49C73,11.38,56.84,29.5,59.33,59.6s4.23,22.76,2.74,33.28-8,22-20.81,21.79c-7.75-.15,26.28,22,42.2,24.47S108,141.59,108,141.59s8.62,0,24.54-2.45S182.51,114.52,174.76,114.67Z"/><polygon class="cls-3" points="118.72 126 118.72 101.02 93.2 101.02 93.2 126 71.23 126 71.23 149.19 141.34 149.19 141.34 126 118.72 126"/><path class="cls-4" d="M50.66,154.56S24.58,207.42,23.28,207.1s54.78,0,54.78,0"/><path class="cls-4" d="M162.73,154.56s26.07,52.86,27.38,52.54-54.78,0-54.78,0"/><path class="cls-5" d="M166.86,140.21A27.14,27.14,0,0,0,143,126H130.81c0,10.59-11.08,19.18-24.76,19.18S81.29,136.55,81.29,126H69.63a27.14,27.14,0,0,0-23.87,14.25L32.49,164,55.63,183l104.1.12,19.88-22.09Z"/><rect class="cls-6" y="216.67" width="282.7" height="16.98"/><rect class="cls-7" x="48.18" y="217.27" width="117.83" height="6.55" rx="3.01"/><path class="cls-8" d="M166.68,216.16v-65a3.12,3.12,0,0,0-3.11-3.12H52a3.12,3.12,0,0,0-3.12,3.12v68a2.54,2.54,0,0,0,2.54,2.53H60.3a2.53,2.53,0,0,0,2.53-2.53v-1.85H152.9v1.85a2.53,2.53,0,0,0,2.53,2.53h8.77a2.53,2.53,0,0,0,2.53-2.53Z"/><ellipse class="cls-7" cx="109.24" cy="180.83" rx="13.71" ry="13.72"/><path class="cls-9" d="M146.76,68.41c0,29.08-21,52.65-39.91,52.65S66.94,97.49,66.94,68.41,86,30.32,108,30.32,146.76,39.34,146.76,68.41Z"/><path class="cls-2" d="M66.94,71.52c1.52-20.18,13.89-21.11,19-28.75,3.26-4.89-3.24,10,33.22,8,21-1.17,27.54,26.21,27.62,25.73,1.89-11.84,2.09-10.71,3.88-15.12s6.52-19.25-2-27.08S99.12,16.5,88.2,21.56,62.6,34.05,62.44,43.23,66.78,73.55,66.94,71.52Z"/><path class="cls-10" d="M57.12,64.21h5.79a0,0,0,0,1,0,0v20a0,0,0,0,1,0,0H57.12a4,4,0,0,1-4-4V68.26A4,4,0,0,1,57.12,64.21Z"/><path class="cls-10" d="M154.64,64.21h5.79a0,0,0,0,1,0,0v20a0,0,0,0,1,0,0h-5.79a4,4,0,0,1-4-4V68.26A4,4,0,0,1,154.64,64.21Z" transform="translate(311.02 148.44) rotate(180)"/><path class="cls-10" d="M61.13,61.47a49.14,49.14,0,0,1,4-16.44,46,46,0,0,1,4.28-7.53A42.56,42.56,0,0,1,90.21,21.89a51.28,51.28,0,0,1,17.19-2.76,47.27,47.27,0,0,1,17.15,3.3,43,43,0,0,1,14.59,9.66,45.35,45.35,0,0,1,9.56,14.36,53.49,53.49,0,0,1,3.87,16.42l-3.56.52a60,60,0,0,0-5.27-14.61,43.37,43.37,0,0,0-9.17-11.92,39.18,39.18,0,0,0-12.64-7.64,42.68,42.68,0,0,0-14.59-2.56A46.6,46.6,0,0,0,92.6,28.9a39.65,39.65,0,0,0-6.8,2.91A40.34,40.34,0,0,0,79.68,36a38.05,38.05,0,0,0-5.24,5.3,40.71,40.71,0,0,0-4.27,6.24A55.28,55.28,0,0,0,64.69,62Z"/><rect class="cls-11" x="58.02" y="58.13" width="9.79" height="33.8" rx="3.16"/><rect class="cls-11" x="145.69" y="58.13" width="9.79" height="33.8" rx="3.16" transform="translate(301.17 150.07) rotate(-180)"/><path class="cls-1" d="M72.69,66.41a5.23,5.23,0,0,0-1.11,4.43c.25,2.22,1.4,9.38,2.85,11,1.68,1.91,2.92,2.61,7.7,2.79s12.78-.8,15-1.6,3.53-2.72,4.26-5.53,1.79-6.46.8-8.68-2.67-3.53-7.3-4.35a56.85,56.85,0,0,0-15.35-.19C74.74,64.83,73.64,65.34,72.69,66.41Z"/><g class="cls-12"><path class="cls-13" d="M79.53,64.31c-.57.87-.67,8.8-.06,11.08s1.19,5.29,5.68,6.84A37.92,37.92,0,0,0,92.48,84c1.41.33-14.55,2.22-17.21-.16s-5.47-13.29-5.06-15.6,4.92-3.64,7.27-4.1C79.08,63.81,79.53,64.31,79.53,64.31Z"/></g><path class="cls-14" d="M145.21,65.89a20.78,20.78,0,0,0-7.78-2.9,57.58,57.58,0,0,0-18.3-.21c-5.7.9-7.86,2.69-9.24,3.77a12,12,0,0,1-1.62,1.08,2.92,2.92,0,0,1-2.85,0,12.48,12.48,0,0,1-1.63-1.06c-1.38-1.08-3.55-2.84-9.26-3.71a58.14,58.14,0,0,0-18.3.35,20.86,20.86,0,0,0-7.76,3,.46.46,0,0,0-.21.39v1.51a1,1,0,0,0,.3.72c.79.71,2.31,1.54,2.57,2.82.3,1.48.91,7.68,2.89,10.92S79.36,86,87.23,86s11.7-1,14.26-3.6c1.23-1.24,3.41-9,3.5-10.46,0-.3.36-.51.68-.66a2.87,2.87,0,0,1,2.38,0c.33.15.66.35.68.66.16,1.82,2,8.24,3.59,10.43,1.5,2,6.28,3.36,14.28,3.49s11.22-.24,13.18-3.5,2.52-9.47,2.81-11c.25-1.28,1.76-2.12,2.54-2.84a.94.94,0,0,0,.3-.71V66.28A.47.47,0,0,0,145.21,65.89ZM102.06,77.42c-.72,2.81-2,4.74-4.26,5.53s-10.21,1.78-15,1.6-6-.88-7.7-2.79c-1.45-1.65-2.59-8.81-2.85-11a5.27,5.27,0,0,1,1.12-4.44c1-1.07,2-1.58,6.83-2.09a56.53,56.53,0,0,1,15.36.18c4.62.82,6.3,2.15,7.3,4.36S102.79,74.61,102.06,77.42Zm39.39-7c-.23,2.22-1.33,9.38-2.76,11-1.67,1.93-2.9,2.64-7.68,2.85s-12.78-.7-15-1.48-3.55-2.69-4.3-5.5-1.85-6.44-.87-8.66,2.64-3.56,7.26-4.41A56.75,56.75,0,0,1,133.46,64c4.79.48,5.89,1,6.84,2A5.25,5.25,0,0,1,141.45,70.47Z"/><path class="cls-1" d="M140.32,66a5.25,5.25,0,0,1,1.15,4.43c-.23,2.22-1.32,9.38-2.76,11-1.67,1.93-2.9,2.64-7.68,2.85s-12.78-.7-15-1.48-3.55-2.69-4.3-5.5-1.85-6.44-.87-8.66,2.64-3.56,7.26-4.41A56.75,56.75,0,0,1,133.48,64C138.27,64.48,139.37,65,140.32,66Z"/><g class="cls-15"><path class="cls-16" d="M118.67,64.14c-.56.87-.66,8.8,0,11.07s1.19,5.3,5.68,6.84,6.48,2.16,7.89,2.49-15.53,1-18.19-1.33-4.77-12.37-4.36-14.68,4.64-4.12,7-4.58C118.23,63.64,118.67,64.14,118.67,64.14Z"/></g><rect class="cls-14" x="186.94" y="162.42" width="78.66" height="14.49"/><rect class="cls-14" x="186.94" y="191.4" width="78.66" height="14.49"/><rect class="cls-17" x="177.12" y="176.91" width="78.66" height="14.49" transform="translate(432.89 368.32) rotate(180)"/><rect class="cls-18" x="219.2" y="179.49" width="36.58" height="9.33" transform="translate(474.97 368.32) rotate(180)"/><rect class="cls-18" x="186.94" y="194.15" width="36.63" height="9" transform="translate(410.5 397.3) rotate(180)"/><rect class="cls-18" x="186.94" y="165.02" width="36.63" height="9.21" transform="translate(410.5 339.25) rotate(180)"/><rect class="cls-18" x="203.01" y="208.82" width="36.58" height="9.66"/><rect class="cls-17" x="197.19" y="205.9" width="78.66" height="14.49" transform="translate(473.03 426.29) rotate(180)"/><rect class="cls-18" x="239.26" y="208.63" width="36.58" height="9.02" transform="translate(515.1 426.29) rotate(180)"/><path class="cls-19" d="M170.89,16.18,266,2.05l18.3,123.32L189.19,139.5Zm24.63,86.15-.24,0a1.64,1.64,0,0,0,.23,3.26l.25,0a1.64,1.64,0,0,0-.24-3.26ZM187.27,46.7l-.25,0a1.64,1.64,0,0,0,.24,3.26l.24,0a1.64,1.64,0,0,0-.23-3.26Z"/><path class="cls-20" d="M264.43,4.1,282.2,123.85l-91.49,13.6L172.94,17.7,264.43,4.1M187.26,51.79a4.38,4.38,0,0,0,.51,0,3.44,3.44,0,0,0-.5-6.85,2.92,2.92,0,0,0-.51,0,3.44,3.44,0,0,0,.5,6.85m8.25,55.62a4.36,4.36,0,0,0,.51,0,3.44,3.44,0,0,0-.5-6.85,4.36,4.36,0,0,0-.51,0,3.44,3.44,0,0,0,.5,6.85M267.47,0,263.9.53l-91.49,13.6-3.57.53.53,3.57L187.14,138l.53,3.57,3.57-.53,91.49-13.6,3.57-.53-.53-3.57L268,3.57,267.47,0Z"/><rect class="cls-17" x="205.58" y="53.83" width="27.08" height="4.65" transform="translate(-6.07 34.82) rotate(-8.96)"/><rect class="cls-21" x="206.24" y="57.7" width="36.48" height="4.65" transform="translate(-6.61 35.7) rotate(-8.96)"/><rect class="cls-17" x="203.11" y="38.41" width="20.78" height="4.65" transform="translate(-3.74 33.75) rotate(-8.96)"/><rect class="cls-21" x="203.83" y="42.88" width="22.41" height="4.65" transform="translate(-4.42 34.05) rotate(-8.96)"/><rect class="cls-17" x="200.62" y="22.7" width="18.24" height="4.65" transform="translate(-1.34 32.98) rotate(-8.96)"/><rect class="cls-21" x="201.29" y="26.61" width="27.08" height="4.65" transform="translate(-1.89 33.82) rotate(-8.96)"/><polygon class="cls-22" points="256.64 62.41 206.86 70.26 198.96 20.07 199.94 19.91 207.69 69.11 256.48 61.42 256.64 62.41"/><line class="cls-23" x1="267.23" y1="58.24" x2="268.2" y2="58.09"/><path class="cls-17" d="M233.3,75.48,237,99.15l14.09-19.37A23.83,23.83,0,0,0,233.3,75.48Z"/><path class="cls-24" d="M237,99.15l-23.64,3.72a23.94,23.94,0,1,0,37.73-23.09Z"/><path class="cls-25" d="M213.38,102.87,237,99.15,233.3,75.48A24,24,0,0,0,213.38,102.87Z"/><circle class="cls-26" cx="58.9" cy="156.67" r="4.02"/><circle class="cls-27" cx="58.9" cy="156.67" r="2.11"/></g></g></svg>